<?xml version="1.0" encoding="UTF-8" standalone="no"?>
<svg
   xmlns:dc="http://purl.org/dc/elements/1.1/"
   xmlns:cc="http://creativecommons.org/ns#"
   xmlns:rdf="http://www.w3.org/1999/02/22-rdf-syntax-ns#"
   xmlns:svg="http://www.w3.org/2000/svg"
   xmlns="http://www.w3.org/2000/svg"
   xmlns:sodipodi="http://sodipodi.sourceforge.net/DTD/sodipodi-0.dtd"
   xmlns:inkscape="http://www.inkscape.org/namespaces/inkscape"
   id="Layer_1"
   data-name="Layer 1"
   viewBox="0 0 64 64"
   version="1.1"
   sodipodi:docname="doctor.svg"
   inkscape:version="0.92.5 (2060ec1f9f, 2020-04-08)">
  <metadata
     id="metadata3799">
    <rdf:RDF>
      <cc:Work
         rdf:about="">
        <dc:format>image/svg+xml</dc:format>
        <dc:type
           rdf:resource="http://purl.org/dc/dcmitype/StillImage" />
      </cc:Work>
    </rdf:RDF>
  </metadata>
  <sodipodi:namedview
     pagecolor="#ffffff"
     bordercolor="#666666"
     borderopacity="1"
     objecttolerance="10"
     gridtolerance="10"
     guidetolerance="10"
     inkscape:pageopacity="0"
     inkscape:pageshadow="2"
     inkscape:window-width="1440"
     inkscape:window-height="838"
     id="namedview3797"
     showgrid="false"
     inkscape:zoom="9.53125"
     inkscape:cx="13.744262"
     inkscape:cy="32"
     inkscape:window-x="0"
     inkscape:window-y="0"
     inkscape:window-maximized="1"
     inkscape:current-layer="Layer_1" />
  <defs
     id="defs3778">
    <style
       id="style3776">.cls-1{fill:#33bbed;stroke:#33bbed;stroke-linecap:round;stroke-linejoin:round;stroke-width:0.5px;}</style>
  </defs>
  <title
     id="title3780">doctor</title>
  <path
     class="cls-1"
     d="M45.07,63H18.93A11.21,11.21,0,0,1,8.25,48.36c2.8-8.61,7.49-15.44,13.2-19.24l1.37,2.06C17.57,34.67,13.24,41,10.61,49.13a8.73,8.73,0,0,0,8.32,11.39H45.07a8.73,8.73,0,0,0,8.32-11.39C50.71,40.88,46.27,34.44,40.89,31l1.34-2.09c5.86,3.76,10.66,10.67,13.52,19.45A11.21,11.21,0,0,1,45.07,63Z"
     id="path3782"
     style="fill:#46cdac;fill-opacity:1;opacity:0.99;stroke:#46cdac;stroke-opacity:1" />
  <rect
     class="cls-1"
     x="42.08"
     y="46.85"
     width="5.87"
     height="2.48"
     id="rect3784"
     style="fill:#46cdac;fill-opacity:1;opacity:0.99;stroke:#46cdac;stroke-opacity:1" />
  <rect
     class="cls-1"
     x="43.78"
     y="45.15"
     width="2.48"
     height="5.87"
     id="rect3786"
     style="fill:#46cdac;fill-opacity:1;opacity:0.99;stroke:#46cdac;stroke-opacity:1" />
  <path
     class="cls-1"
     d="M31.78,37.14c-8.16,0-15.16-10.47-15.16-19C16.62,1,28,1,31.78,1,46.93,1,46.93,13.87,46.93,18.1,46.93,26.67,39.94,37.14,31.78,37.14Zm0-33.66C20.6,3.48,19.1,10.87,19.1,18.1s6,16.56,12.68,16.56S44.45,25.4,44.45,18.1C44.45,8,40.54,3.48,31.78,3.48Z"
     id="path3788"
     style="fill:#46cdac;fill-opacity:1;opacity:0.99;stroke:#46cdac;stroke-opacity:1" />
  <path
     class="cls-1"
     d="M18.88,15l-1.61-1.88,4.56-3.9a6.43,6.43,0,0,1,5.86-1.32l3.05.83a4,4,0,0,0,2.07,0L36,7.89A6.47,6.47,0,0,1,41.62,9l4.5,3.44-1.51,2L40.12,11a4,4,0,0,0-3.43-.67l-3.23.87a6.43,6.43,0,0,1-3.37,0L27,10.33a4,4,0,0,0-3.6.81Z"
     id="path3790"
     style="fill:#46cdac;fill-opacity:1;opacity:0.99;stroke:#46cdac;stroke-opacity:1" />
  <polygon
     class="cls-1"
     points="25.59 61.65 23.14 48.26 27.59 40.38 25.54 35.2 27.84 34.28 30.34 40.57 25.74 48.7 28.03 61.2 25.59 61.65"
     id="polygon3792"
     style="fill:#46cdac;fill-opacity:1;opacity:0.99;stroke:#46cdac;stroke-opacity:1" />
  <polygon
     class="cls-1"
     points="37.8 61.65 35.36 61.2 37.65 48.7 33.05 40.57 35.55 34.28 37.86 35.2 35.8 40.38 40.25 48.26 37.8 61.65"
     id="polygon3794"
     style="fill:#46cdac;fill-opacity:1;opacity:0.99;stroke:#46cdac;stroke-opacity:1" />
</svg>
