<?xml version="1.0" encoding="UTF-8" standalone="no"?>
<svg
   xmlns:dc="http://purl.org/dc/elements/1.1/"
   xmlns:cc="http://creativecommons.org/ns#"
   xmlns:rdf="http://www.w3.org/1999/02/22-rdf-syntax-ns#"
   xmlns:svg="http://www.w3.org/2000/svg"
   xmlns="http://www.w3.org/2000/svg"
   xmlns:sodipodi="http://sodipodi.sourceforge.net/DTD/sodipodi-0.dtd"
   xmlns:inkscape="http://www.inkscape.org/namespaces/inkscape"
   id="Layer_1"
   data-name="Layer 1"
   viewBox="0 0 64 64"
   version="1.1"
   sodipodi:docname="implant.svg"
   inkscape:version="0.92.5 (2060ec1f9f, 2020-04-08)">
  <metadata
     id="metadata5297">
    <rdf:RDF>
      <cc:Work
         rdf:about="">
        <dc:format>image/svg+xml</dc:format>
        <dc:type
           rdf:resource="http://purl.org/dc/dcmitype/StillImage" />
      </cc:Work>
    </rdf:RDF>
  </metadata>
  <sodipodi:namedview
     pagecolor="#ffffff"
     bordercolor="#666666"
     borderopacity="1"
     objecttolerance="10"
     gridtolerance="10"
     guidetolerance="10"
     inkscape:pageopacity="0"
     inkscape:pageshadow="2"
     inkscape:window-width="1440"
     inkscape:window-height="838"
     id="namedview5295"
     showgrid="false"
     inkscape:zoom="3.6875"
     inkscape:cx="-15.186441"
     inkscape:cy="32"
     inkscape:window-x="0"
     inkscape:window-y="0"
     inkscape:window-maximized="1"
     inkscape:current-layer="Layer_1" />
  <defs
     id="defs5274">
    <style
       id="style5272">.cls-1{fill:#33bbed;stroke:#33bbed;stroke-linecap:round;stroke-linejoin:round;stroke-width:0.5px;}</style>
  </defs>
  <title
     id="title5276">implant</title>
  <path
     class="cls-1"
     d="M32,63a9.62,9.62,0,0,1-9.61-9.61V33.7h2.48V53.39a7.13,7.13,0,1,0,14.25,0V33.84h2.48V53.39A9.62,9.62,0,0,1,32,63Z"
     id="path5278"
     style="stroke:#46cdac;stroke-opacity:1;fill:#46cdac;fill-opacity:1" />
  <path
     class="cls-1"
     d="M46.9,36l-.2,0-7.43-1.24a44.31,44.31,0,0,0-14.55,0L17.1,36a4.44,4.44,0,0,1-4.34-3.45A14.75,14.75,0,0,0,10,27.08c-1.64-2.38-3.5-5.08-3.5-10A16.07,16.07,0,0,1,32,4a16.07,16.07,0,0,1,25.47,13c0,4.93-1.86,7.63-3.5,10a14.73,14.73,0,0,0-2.71,5.5A4.44,4.44,0,0,1,46.9,36ZM22.6,3.48A13.6,13.6,0,0,0,9,17.07c0,4.16,1.49,6.32,3.07,8.6a17,17,0,0,1,3.1,6.39A1.94,1.94,0,0,0,17,33.55l7.31-1.22a46.65,46.65,0,0,1,15.36,0L47,33.55a1.94,1.94,0,0,0,1.83-1.49,17,17,0,0,1,3.1-6.38C53.5,23.39,55,21.23,55,17.07A13.59,13.59,0,0,0,32.79,6.56L32,7.21l-.79-.65A13.6,13.6,0,0,0,22.6,3.48Z"
     id="path5280"
     style="stroke:#46cdac;stroke-opacity:1;fill:#46cdac;fill-opacity:1" />
  <path
     class="cls-1"
     d="M30.64,8.78l-2-1.52A16,16,0,0,1,43.55,1.14L43.23,3.6A13.55,13.55,0,0,0,30.64,8.78Z"
     id="path5282"
     style="stroke:#46cdac;stroke-opacity:1;fill:#46cdac;fill-opacity:1" />
  <path
     class="cls-1"
     d="M14.47,16,12,15.63a11.71,11.71,0,0,1,10.06-10l.32,2.46A9.35,9.35,0,0,0,14.47,16Z"
     id="path5284"
     style="stroke:#46cdac;stroke-opacity:1;fill:#46cdac;fill-opacity:1" />
  <rect
     class="cls-1"
     x="22.87"
     y="48.51"
     width="18.25"
     height="2.48"
     transform="translate(-17.2 16.92) rotate(-23.54)"
     id="rect5286"
     style="stroke:#46cdac;stroke-opacity:1;fill:#46cdac;fill-opacity:1" />
  <rect
     class="cls-1"
     x="25.23"
     y="54.29"
     width="15.82"
     height="2.48"
     transform="translate(-19.74 18.31) rotate(-24.04)"
     id="rect5288"
     style="stroke:#46cdac;stroke-opacity:1;fill:#46cdac;fill-opacity:1" />
  <rect
     class="cls-1"
     x="22.87"
     y="42.31"
     width="18.25"
     height="2.48"
     transform="translate(-14.73 16.4) rotate(-23.54)"
     id="rect5290"
     style="stroke:#46cdac;stroke-opacity:1;fill:#46cdac;fill-opacity:1" />
  <rect
     class="cls-1"
     x="22.87"
     y="36.11"
     width="18.25"
     height="2.48"
     transform="translate(-12.25 15.89) rotate(-23.54)"
     id="rect5292"
     style="stroke:#46cdac;stroke-opacity:1;fill:#46cdac;fill-opacity:1" />
</svg>
