<?xml version="1.0" encoding="UTF-8" standalone="no"?>
<svg
   xmlns:dc="http://purl.org/dc/elements/1.1/"
   xmlns:cc="http://creativecommons.org/ns#"
   xmlns:rdf="http://www.w3.org/1999/02/22-rdf-syntax-ns#"
   xmlns:svg="http://www.w3.org/2000/svg"
   xmlns="http://www.w3.org/2000/svg"
   xmlns:sodipodi="http://sodipodi.sourceforge.net/DTD/sodipodi-0.dtd"
   xmlns:inkscape="http://www.inkscape.org/namespaces/inkscape"
   id="Layer_1"
   data-name="Layer 1"
   viewBox="0 0 64 64"
   version="1.1"
   sodipodi:docname="patient.svg"
   inkscape:version="0.92.5 (2060ec1f9f, 2020-04-08)">
  <metadata
     id="metadata5913">
    <rdf:RDF>
      <cc:Work
         rdf:about="">
        <dc:format>image/svg+xml</dc:format>
        <dc:type
           rdf:resource="http://purl.org/dc/dcmitype/StillImage" />
      </cc:Work>
    </rdf:RDF>
  </metadata>
  <sodipodi:namedview
     pagecolor="#ffffff"
     bordercolor="#666666"
     borderopacity="1"
     objecttolerance="10"
     gridtolerance="10"
     guidetolerance="10"
     inkscape:pageopacity="0"
     inkscape:pageshadow="2"
     inkscape:window-width="1440"
     inkscape:window-height="838"
     id="namedview5911"
     showgrid="false"
     inkscape:zoom="3.6875"
     inkscape:cx="-15.186441"
     inkscape:cy="32"
     inkscape:window-x="0"
     inkscape:window-y="0"
     inkscape:window-maximized="1"
     inkscape:current-layer="Layer_1" />
  <defs
     id="defs5896">
    <style
       id="style5894">.cls-1{fill:none;stroke:#33bbed;stroke-linecap:round;stroke-linejoin:round;stroke-width:3px;}</style>
  </defs>
  <title
     id="title5898">patient</title>
  <path
     class="cls-1"
     d="M37.86,19.1a4.53,4.53,0,0,1,8.81,0"
     id="path5900"
     style="stroke:#46cdac" />
  <path
     class="cls-1"
     d="M14.91,19.1a4.54,4.54,0,0,1,8.81,0"
     id="path5902"
     style="stroke:#46cdac" />
  <path
     class="cls-1"
     d="M38.37,10.63a19.28,19.28,0,0,1-8.54-3.45c-6.08-5.29-13.7-6.62-20-1.64l-.47.37a15.5,15.5,0,0,0-3,21l3,4.15c1.21,1.64,1.48,1.87,3.2,3.93l.08.09S14.77,36.56,15,52.11c0,0,0,7,6,9a7.35,7.35,0,0,0,2.92.76c2.12-.26,2.52-3.36,2.31-11.59,0,0-.46-11.93,4.53-11.93"
     id="path5904"
     style="stroke:#46cdac" />
  <path
     class="cls-1"
     d="M35.86,4.33C41,1.6,46.81,1.63,51.78,5.53l.47.37a15.5,15.5,0,0,1,3,21l-3,4.15C51,32.66,50.77,32.88,49,34.95L49,35s-2.17,1.52-2.36,17.07c0,0,0,7-6,9a7.35,7.35,0,0,1-2.92.76c-2.12-.26-2.52-3.36-2.31-11.59,0,0,.46-11.93-4.53-11.93"
     id="path5906"
     style="stroke:#46cdac" />
  <path
     class="cls-1"
     d="M23,26.11a9.76,9.76,0,0,0,15.59,0"
     id="path5908"
     style="stroke:#46cdac" />
</svg>
